<svg xmlns="http://www.w3.org/2000/svg" viewBox="0 0 100 100">
  <defs>
    <linearGradient id="grad" x1="0%" y1="0%" x2="100%" y2="100%">
      <stop offset="0%" style="stop-color:#3b82f6;stop-opacity:1" />
      <stop offset="100%" style="stop-color:#1d4ed8;stop-opacity:1" />
    </linearGradient>
  </defs>

  <!-- Background circle -->
  <circle cx="50" cy="50" r="48" fill="url(#grad)"/>

  <!-- Opening brace { -->
  <path d="M 30 25 Q 25 25 25 30 L 25 42 Q 25 47 20 47 Q 25 47 25 52 L 25 64 Q 25 69 30 69"
        stroke="white"
        stroke-width="4"
        fill="none"
        stroke-linecap="round"
        stroke-linejoin="round"/>

  <!-- Closing brace } -->
  <path d="M 70 25 Q 75 25 75 30 L 75 42 Q 75 47 80 47 Q 75 47 75 52 L 75 64 Q 75 69 70 69"
        stroke="white"
        stroke-width="4"
        fill="none"
        stroke-linecap="round"
        stroke-linejoin="round"/>

  <!-- Center dots representing JSON content -->
  <circle cx="50" cy="35" r="2" fill="white" opacity="0.8"/>
  <circle cx="50" cy="47" r="2" fill="white" opacity="0.8"/>
  <circle cx="50" cy="59" r="2" fill="white" opacity="0.8"/>
</svg>
